<?xml version="1.0" encoding="UTF-8"?>
<svg id="Layer_1" data-name="Layer 1" xmlns="http://www.w3.org/2000/svg" xmlns:xlink="http://www.w3.org/1999/xlink" viewBox="0 0 1168.6 441.58">
  <defs>
    <style>
      .cls-1 {
        fill: #ffa200;
        font-family: 'Cairo_300.000wght_-11.000slnt', Cairo;
        font-size: 274.91px;
        font-variation-settings: 'wght' 300, 'slnt' -11;
      }

      .cls-1, .cls-2 {
        opacity: .5;
      }

      .cls-3 {
        font-family: Cairo-Light, Cairo;
        font-size: 47.46px;
        font-variation-settings: 'wght' 300, 'slnt' 0;
        font-weight: 300;
        opacity: .25;
      }

      .cls-3, .cls-2 {
        fill: #ff003c;
      }

      .cls-4 {
        fill: url(#linear-gradient);
      }
    </style>
    <linearGradient id="linear-gradient" x1="584.3" y1="-60.43" x2="584.3" y2="634.22" gradientUnits="userSpaceOnUse">
      <stop offset="0" stop-color="#ffa200"/>
      <stop offset="1" stop-color="#ff003c"/>
    </linearGradient>
  </defs>
  <rect class="cls-4" x="-1.32" y="-1.05" width="1171.24" height="314.36"/>
  <text class="cls-1" transform="translate(-74.63 -5.46) scale(1 -1)"><tspan x="0" y="0">oOoOoOoO</tspan></text>
  <text class="cls-3" transform="translate(407.5 154.4)"><tspan x="0" y="0">اللغة مصري</tspan></text>
  <text class="cls-3" transform="translate(1104.38 198.79)"><tspan x="0" y="0">مصري</tspan></text>
  <text class="cls-3" transform="translate(368.01 6.23)"><tspan x="0" y="0">مصري</tspan></text>
  <text class="cls-3" transform="translate(670.93 65.71)"><tspan x="0" y="0">المصرية</tspan></text>
  <text class="cls-3" transform="translate(825.27 135.74)"><tspan x="0" y="0">المصرية مصري</tspan></text>
  <text class="cls-3" transform="translate(661.95 231.54)"><tspan x="0" y="0">المصرية العامية</tspan></text>
  <text class="cls-3" transform="translate(-128.14 93.52)"><tspan x="0" y="0">المصرية العامية</tspan></text>
  <text class="cls-3" transform="translate(-19.87 177.82)"><tspan x="0" y="0">المصرية العامية</tspan></text>
  <path class="cls-2" d="M1471.35,206.37c-278.8,44.6-561.63,54.85-842.71,30.53l-350.85-30.35h0s0,0,0,0c0,0,0,0,0,0l-2.03-.18v.49c-124.29,19.81-249.38,32.77-374.75,38.91.09,16.99.05,33.99-.17,50.98-.72,55.8-3.64,111.42-7.66,167.06-1.36,18.9-2.44,37.82-3.14,56.76l387.75,21.64v-.58l26.35-5.25c155.01-30.86,313.02-42.02,470.59-33.23l696.62,38.88V206.37h0Z"/>
  <path d="M-13.5,267.36h0c278.8,27.37,561.63,33.66,842.71,18.74l352.88-18.74v206.02l-28.38-3.47c-155.01-18.94-313.02-25.79-470.59-20.39L-13.5,473.38v-206.02Z"/>
</svg>